<?xml version="1.0" encoding="iso-8859-1"?>
<!-- Generator: Adobe Illustrator 19.0.0, SVG Export Plug-In . SVG Version: 6.00 Build 0)  -->
<svg version="1.1" id="Layer_1" xmlns="http://www.w3.org/2000/svg" xmlns:xlink="http://www.w3.org/1999/xlink" x="0px" y="0px"
	 viewBox="0 0 512 512" style="enable-background:new 0 0 512 512;" xml:space="preserve">
<path style="fill:#2BA5F7;" d="M114.864,296.084v19.533v44.914c0,13.594,14.384,21.936,26.491,15.757
	c2.941-1.51,6.477-2.506,11.191-2.506c18.835,0,18.835,16.02,37.671,16.02s18.835-16.02,37.682-16.02
	c18.835,0,18.835,16.02,37.682,16.02c13.377,0,17.256-8.079,25.118-12.759c7.85-4.669,12.565-13.217,12.565-22.337v-21.719h17.359
	c9.601,0,17.371-7.781,17.371-17.371v-39.067c0-9.589-7.77-17.371-17.371-17.371H132.235c-9.589,0-17.371,7.781-17.371,17.371
	L114.864,296.084L114.864,296.084z M209.407,202.182h162.87v218.083H37.714V202.182H209.407z"/>
<path style="fill:#CCCCCC;" d="M136.594,488.535h-99.04c-15.997,0-28.974-12.977-28.974-28.974v-10.161h102.016v13.137
	C110.596,476.897,122.233,488.535,136.594,488.535z"/>
<g>
	<path style="fill:#F2F2F2;" d="M209.407,202.182H37.714v218.083h334.563V202.182H209.407z M209.407,173.048H387.21
		c7.839,0,14.201,6.362,14.201,14.201v262.151H110.596H8.58V187.249c0-7.839,6.362-14.201,14.201-14.201H209.407z"/>
	<path style="fill:#F2F2F2;" d="M503.415,449.399v13.137c0,14.361-11.638,25.999-25.999,25.999h-76.005H136.594
		c-14.361,0-25.999-11.638-25.999-25.999v-13.137h290.816H503.415z"/>
</g>
<polygon style="fill:#F7B239;" points="229.295,23.463 229.295,147.976 209.407,147.976 187.31,147.976 187.31,23.463 "/>
<path style="fill:#CCCCCC;" d="M132.235,259.18c9.589,0,17.371,7.781,17.371,17.371v39.067c0,4.795-1.945,9.143-5.092,12.278
	c-3.147,3.147-7.484,5.092-12.278,5.092c-9.589,0-17.371-7.781-17.371-17.371v-19.533v-19.533
	C114.864,266.961,122.645,259.18,132.235,259.18z"/>
<g>
	<path style="fill:#F95428;" d="M303.264,332.988v21.719c0,9.12-4.715,17.668-12.565,22.337
		c-7.861,4.68-11.741,12.759-25.118,12.759c-18.847,0-18.847-16.02-37.682-16.02c-18.847,0-18.847,16.02-37.682,16.02
		s-18.835-16.02-37.671-16.02c-4.715,0-8.251,0.996-11.191,2.506c-12.107,6.179-26.491-2.163-26.491-15.757v-44.914
		c0,9.589,7.781,17.371,17.371,17.371H303.264z"/>
	<path style="fill:#F95428;" d="M337.993,276.551v39.067c0,9.589-7.77,17.371-17.371,17.371h-17.359H132.235
		c4.795,0,9.132-1.945,12.278-5.092c3.147-3.135,5.092-7.484,5.092-12.278v-39.067c0-9.589-7.781-17.371-17.371-17.371h188.388
		C330.224,259.18,337.993,266.961,337.993,276.551z"/>
</g>
<path style="fill:#333333;" d="M503.418,440.817h-93.429V187.245c0-12.56-10.218-22.778-22.776-22.778H217.992v-7.911h11.298
	c4.741,0,8.582-3.843,8.582-8.582V23.465c0-4.74-3.841-8.582-8.582-8.582h-41.98c-4.741,0-8.582,3.843-8.582,8.582v124.509
	c0,4.74,3.841,8.582,8.582,8.582h13.518v7.911H22.776C10.218,164.468,0,174.685,0,187.245v272.318
	c0,20.708,16.848,37.554,37.554,37.554h99.038h264.814h76.012c19.069,0,34.582-15.513,34.582-34.582v-13.136
	C512,444.659,508.157,440.817,503.418,440.817z M195.893,32.048h24.816v107.345h-24.816V32.048z M17.165,187.245
	c0-3.095,2.517-5.613,5.612-5.613h178.051v11.965H37.712c-4.741,0-8.582,3.843-8.582,8.582v218.091c0,4.74,3.841,8.582,8.582,8.582
	h334.564c4.741,0,8.582-3.843,8.582-8.582V202.178c0-4.74-3.841-8.582-8.582-8.582H217.992v-11.965h169.22
	c3.094,0,5.612,2.517,5.612,5.613v253.572H17.165V187.245z M96.652,304.667h9.631v55.867c0,9.251,4.688,17.644,12.539,22.453
	c8.049,4.931,17.93,5.282,26.435,0.943c1.316-0.672,3.505-1.565,7.285-1.565c6.264,0,8.904,2.245,13.279,5.965
	c4.989,4.243,11.823,10.055,24.398,10.055c12.574,0,19.408-5.812,24.397-10.055c4.375-3.72,7.016-5.965,13.279-5.965
	c6.265,0,8.906,2.245,13.281,5.966c4.99,4.243,11.824,10.054,24.4,10.054c12.576,0,19.41-5.811,24.4-10.054
	c1.752-1.49,3.408-2.897,5.115-3.914c10.33-6.148,16.748-17.533,16.748-29.71v-13.137h8.787c14.31,0,25.951-11.641,25.951-25.951
	v-39.068c0-14.308-11.641-25.951-25.951-25.951H132.233c-14.31,0-25.951,11.641-25.951,25.951v10.952h-9.631
	c-3.208,0-5.817-2.609-5.817-5.817v-33.852c0-3.208,2.609-5.817,5.817-5.817h98.358c12.672,0,22.981-10.309,22.981-22.98v-8.277
	h145.702v200.926H46.294V210.761h154.533v8.277c0,3.206-2.609,5.815-5.817,5.815H96.652c-12.672,0-22.981,10.309-22.981,22.981
	v33.852C73.671,294.359,83.98,304.667,96.652,304.667z M126.308,287.502h-2.861V276.55c0-4.844,3.941-8.786,8.786-8.786
	c4.845,0,8.786,3.941,8.786,8.786v39.068c0,4.844-3.941,8.786-8.786,8.786c-4.845,0-8.786-3.941-8.786-8.786v-10.951h2.861
	c4.741,0,8.582-3.843,8.582-8.582S131.048,287.502,126.308,287.502z M123.447,340.035c2.745,0.991,5.703,1.533,8.786,1.533h162.442
	v13.137c0,6.158-3.204,11.891-8.363,14.96c-2.948,1.755-5.343,3.791-7.455,5.588c-4.376,3.72-7.017,5.965-13.281,5.965
	c-6.264,0-8.906-2.245-13.281-5.966c-4.99-4.243-11.824-10.054-24.4-10.054c-12.575,0-19.409,5.812-24.398,10.055
	c-4.375,3.72-7.016,5.965-13.279,5.965c-6.264,0-8.904-2.245-13.279-5.965c-4.989-4.243-11.823-10.055-24.398-10.055
	c-5.614,0-10.549,1.125-15.088,3.441c-3.138,1.603-6.753,1.494-9.668-0.292c-2.757-1.689-4.338-4.536-4.338-7.815v-20.497H123.447z
	 M156.65,324.404c0.991-2.745,1.533-5.703,1.533-8.786V276.55c0-3.083-0.544-6.041-1.533-8.786h163.977
	c4.844,0,8.786,3.941,8.786,8.786v39.068c0,4.844-3.941,8.786-8.786,8.786H156.65z M17.165,459.562v-1.58h84.846v4.553
	c0,6.349,1.727,12.298,4.725,17.418H37.554C26.311,479.952,17.165,470.805,17.165,459.562z M494.835,462.535
	c0,9.604-7.813,17.418-17.418,17.418h-76.012H136.592c-9.604,0-17.416-7.813-17.416-17.418v-4.553h282.23h93.429v4.553H494.835z"/>
<g>
</g>
<g>
</g>
<g>
</g>
<g>
</g>
<g>
</g>
<g>
</g>
<g>
</g>
<g>
</g>
<g>
</g>
<g>
</g>
<g>
</g>
<g>
</g>
<g>
</g>
<g>
</g>
<g>
</g>
</svg>
