<?xml version="1.0" encoding="iso-8859-1"?>
<!-- Generator: Adobe Illustrator 19.0.0, SVG Export Plug-In . SVG Version: 6.00 Build 0)  -->
<svg version="1.1" id="Layer_1" xmlns="http://www.w3.org/2000/svg" xmlns:xlink="http://www.w3.org/1999/xlink" x="0px" y="0px"
	 viewBox="0 0 512 512" style="enable-background:new 0 0 512 512;" xml:space="preserve">
<circle style="fill:#053847;" cx="256" cy="256" r="247.83"/>
<circle style="fill:#235C6D;" cx="256" cy="256" r="167.489"/>
<path style="fill:#127C8D;" d="M256,512c-68.38,0-132.667-26.628-181.019-74.981S0,324.38,0,256S26.628,123.332,74.981,74.981
	C123.333,26.628,187.62,0,256,0s132.667,26.628,181.019,74.981C485.372,123.332,512,187.62,512,256
	c0,43.784-11.254,87.005-32.547,124.99c-2.206,3.937-7.188,5.337-11.121,3.132c-3.936-2.206-5.338-7.187-3.132-11.121
	c19.927-35.55,30.46-76.008,30.46-117.001c0-132.149-107.51-239.66-239.66-239.66S16.34,123.851,16.34,256
	S123.851,495.66,256,495.66c40.996,0,81.45-10.528,116.989-30.442c3.938-2.207,8.918-0.803,11.122,3.133
	c2.205,3.936,0.803,8.915-3.134,11.121C343.003,500.751,299.787,512,256,512z"/>
<circle style="fill:#FF7226;" cx="431.246" cy="431.246" r="35.404"/>
<path style="fill:#127C8D;" d="M256,431.578c-44.983,0-89.965-17.123-124.21-51.368c-49.502-49.503-64.892-123.585-39.208-188.731
	c1.655-4.197,6.398-6.258,10.598-4.605c4.198,1.656,6.259,6.4,4.605,10.598c-23.297,59.089-9.338,126.283,35.562,171.183
	c31.056,31.056,71.862,46.585,112.655,46.589c40.803,0.003,81.592-15.526,112.655-46.589c62.119-62.119,62.119-163.193,0-225.312
	c-44.901-44.901-112.093-58.866-171.184-35.569c-4.198,1.655-8.943-0.407-10.598-4.605c-1.655-4.198,0.406-8.943,4.605-10.598
	c65.145-25.682,139.227-10.289,188.733,39.217c68.489,68.49,68.489,179.93,0,248.42C345.965,414.455,300.983,431.578,256,431.578z"
	/>
<circle style="fill:#F23E6D;" cx="137.565" cy="137.565" r="35.404"/>
<g>
	<path style="fill:#FF9E46;" d="M256,351.319c-4.513,0-8.17-3.658-8.17-8.17V168.851c0-4.512,3.657-8.17,8.17-8.17
		s8.17,3.658,8.17,8.17v174.298C264.17,347.661,260.513,351.319,256,351.319z"/>
	<path style="fill:#FF9E46;" d="M307.23,334.676c-2.526,0-5.017-1.168-6.616-3.368l-102.449-141.01
		c-2.653-3.65-1.843-8.76,1.807-11.412c3.652-2.65,8.758-1.842,11.412,1.808l102.449,141.009c2.653,3.65,1.843,8.76-1.807,11.412
		C310.577,334.168,308.896,334.676,307.23,334.676z"/>
	<path style="fill:#FF9E46;" d="M338.885,291.102c-0.838,0-1.689-0.13-2.526-0.402l-165.767-53.86
		c-4.291-1.394-6.641-6.003-5.245-10.294c1.393-4.292,6.009-6.64,10.294-5.245l165.767,53.86c4.291,1.394,6.641,6.003,5.245,10.294
		C345.532,288.907,342.329,291.102,338.885,291.102z"/>
	<path style="fill:#FF9E46;" d="M173.114,291.102c-3.443,0-6.647-2.195-7.768-5.648c-1.394-4.291,0.954-8.9,5.245-10.294
		l165.767-53.86c4.289-1.394,8.901,0.953,10.294,5.245c1.394,4.291-0.954,8.9-5.245,10.294l-165.767,53.86
		C174.802,290.973,173.951,291.102,173.114,291.102z"/>
	<path style="fill:#FF9E46;" d="M204.769,334.676c-1.666,0-3.345-0.508-4.795-1.561c-3.652-2.653-4.46-7.762-1.807-11.412
		l102.449-141.009c2.653-3.653,7.765-4.458,11.412-1.808c3.652,2.653,4.46,7.762,1.807,11.412L211.386,331.306
		C209.787,333.507,207.295,334.676,204.769,334.676z"/>
</g>
<circle style="fill:#FFD15D;" cx="256" cy="256" r="70.809"/>
<g>
</g>
<g>
</g>
<g>
</g>
<g>
</g>
<g>
</g>
<g>
</g>
<g>
</g>
<g>
</g>
<g>
</g>
<g>
</g>
<g>
</g>
<g>
</g>
<g>
</g>
<g>
</g>
<g>
</g>
</svg>
