<?xml version="1.0" standalone="no"?>
<!DOCTYPE svg PUBLIC "-//W3C//DTD SVG 20010904//EN"
 "http://www.w3.org/TR/2001/REC-SVG-20010904/DTD/svg10.dtd">
<svg version="1.0" xmlns="http://www.w3.org/2000/svg"
 width="512.000000pt" height="512.000000pt" viewBox="0 0 512.000000 512.000000"
 preserveAspectRatio="xMidYMid meet">

<g transform="translate(0.000000,512.000000) scale(0.100000,-0.100000)"
fill="#000000" stroke="none">
<path d="M1770 4474 c0 -2 60 -80 133 -172 160 -202 187 -251 187 -337 0 -108
-20 -147 -140 -265 -119 -118 -160 -186 -181 -302 -31 -169 59 -363 212 -455
63 -38 162 -65 218 -61 l38 3 -64 100 c-35 55 -71 124 -79 154 -32 108 7 227
103 309 30 26 77 80 104 120 174 260 107 579 -159 756 -92 61 -158 89 -359
151 -7 3 -13 2 -13 -1z"/>
<path d="M2824 3825 c-110 -24 -184 -74 -230 -157 -25 -47 -29 -63 -28 -133 0
-111 32 -173 136 -268 82 -74 108 -119 108 -185 -1 -58 -27 -102 -137 -231
-57 -66 -103 -122 -103 -124 0 -10 189 37 237 60 159 74 258 262 224 426 -18
89 -56 151 -133 219 -72 64 -98 107 -98 160 0 47 40 126 94 187 25 28 46 54
46 56 0 9 -53 4 -116 -10z"/>
</g>
</svg>
