<?xml version="1.0" encoding="iso-8859-1"?>
<!-- Generator: Adobe Illustrator 19.0.0, SVG Export Plug-In . SVG Version: 6.00 Build 0)  -->
<svg version="1.1" id="Layer_1" xmlns="http://www.w3.org/2000/svg" xmlns:xlink="http://www.w3.org/1999/xlink" x="0px" y="0px"
	 viewBox="0 0 512.001 512.001" style="enable-background:new 0 0 512.001 512.001;" xml:space="preserve">
<circle style="fill:#E16B5A;" cx="255.999" cy="255.999" r="255.998"/>
<path style="fill:#242424;" d="M7.681,318.334C35.521,429.585,136.117,512.001,256,512.001
	c119.879,0,220.479-82.416,248.319-193.667C504.318,318.334,7.681,318.334,7.681,318.334z"/>
<g>
	<rect x="52.001" y="362.335" style="fill:#F5F5F5;" width="24" height="8"/>
	<path style="fill:#F5F5F5;" d="M450.526,422.333H61.472c2.328,2.724,4.708,5.388,7.14,8h374.762
		C445.819,427.721,448.202,425.057,450.526,422.333z"/>
	<rect x="104.001" y="362.335" style="fill:#F5F5F5;" width="24" height="8"/>
	<rect x="156.001" y="362.335" style="fill:#F5F5F5;" width="24" height="8"/>
	<rect x="208" y="362.335" style="fill:#F5F5F5;" width="24" height="8"/>
	<rect x="260" y="362.335" style="fill:#F5F5F5;" width="24" height="8"/>
	<rect x="312" y="362.335" style="fill:#F5F5F5;" width="24" height="8"/>
</g>
<polygon style="fill:#B3B3B3;" points="451.998,354.334 363.999,354.334 363.999,178.334 327.999,178.334 327.999,390.334 
	451.998,390.334 "/>
<g>
	<path style="fill:#E6E6E6;" d="M365.167,199.302c5.952-2.84,10.832-10.559,10.832-17.164v-7.804c0-6.595-5.404-12-12-12H324
		c-6.6,0-12,5.404-12,12v38.308c0,6.6,4.876,9.676,10.832,6.836L365.167,199.302z"/>
	<path style="fill:#E6E6E6;" d="M467.998,390.334c0,4.404-3.6,8-8,8h-4c-4.404,0-8-3.596-8-8v-36c0-4.4,3.596-8,8-8h4
		c4.4,0,8,3.6,8,8V390.334z"/>
</g>
<path style="fill:#263740;" d="M455.998,342.333c0,8,0,68,0,68h4.228c17.168-22.684,30.624-48.316,39.516-75.999
	c0,0-27.744,0-35.824,0C459.998,334.333,455.998,338.334,455.998,342.333z"/>
<path style="fill:#242424;" d="M256.324,215.738l-46.94,22.376c-5.956,2.84-13.156,0.288-15.992-5.668l-20.656-43.327
	c-2.84-5.96-0.288-13.156,5.668-15.996l46.936-22.376L256.324,215.738z"/>
<path style="fill:#B3B3B3;" d="M264.663,229.482c0,0,177.639-84.68,236.854-112.904c7.224-3.444,12.892-19.44,9.448-26.66
	c-8.608-18.06-30.984-64.996-37.872-79.436c-3.436-7.22-19.432-12.892-26.66-9.448c-74.983,35.744-299.938,142.979-299.938,142.979
	L264.663,229.482z"/>
<polygon style="fill:#A6A6A6;" points="481.706,28.535 183.416,170.726 190.812,176.071 485.15,35.755 "/>
<g>
	<polygon style="fill:#F5F5F5;" points="481.706,28.535 479.982,24.923 179.732,168.054 183.416,170.726 	"/>
	<path style="fill:#F5F5F5;" d="M100,150.335H22.841c-14.628,32.22-22.84,67.972-22.84,105.667c0,21.504,2.684,42.376,7.68,62.332
		H100V150.335z"/>
</g>
<path style="fill:#E6E6E6;" d="M100,150.335h12v-12H28.668c-2.044,3.94-3.984,7.944-5.828,12H100z"/>
<rect x="43.998" y="166.34" style="fill:#CCCCCC;" width="36" height="43.997"/>
<rect x="47.999" y="170.331" style="fill:#C2E2F2;" width="28" height="36"/>
<g>
	<rect x="60.004" y="170.331" style="fill:#CCCCCC;" width="4" height="36"/>
	<rect x="43.998" y="186.337" style="fill:#CCCCCC;" width="36" height="4"/>
	<rect x="43.998" y="238.337" style="fill:#CCCCCC;" width="36" height="43.997"/>
</g>
<rect x="47.999" y="242.329" style="fill:#C2E2F2;" width="28" height="36"/>
<g>
	<rect x="60.004" y="242.329" style="fill:#CCCCCC;" width="4" height="36"/>
	<rect x="43.998" y="258.335" style="fill:#CCCCCC;" width="36" height="4"/>
</g>
<g>
</g>
<g>
</g>
<g>
</g>
<g>
</g>
<g>
</g>
<g>
</g>
<g>
</g>
<g>
</g>
<g>
</g>
<g>
</g>
<g>
</g>
<g>
</g>
<g>
</g>
<g>
</g>
<g>
</g>
</svg>
